<?xml version="1.0" encoding="UTF-8" standalone="no"?>
<!DOCTYPE svg PUBLIC "-//W3C//DTD SVG 1.1//EN" "http://www.w3.org/Graphics/SVG/1.1/DTD/svg11.dtd">
<svg width="100%" height="100%" viewBox="0 0 91 128" version="1.1" xmlns="http://www.w3.org/2000/svg" xmlns:xlink="http://www.w3.org/1999/xlink" xml:space="preserve" xmlns:serif="http://www.serif.com/" style="fill-rule:evenodd;clip-rule:evenodd;stroke-linejoin:round;stroke-miterlimit:2;">
    <g id="b">
        <g id="c">
            <g>
                <path d="M0.94,107.94C1.44,108.34 1.92,108.62 2.36,108.78C2.8,108.94 3.26,109.04 3.74,109.04C4.32,109.04 4.78,108.9 5.12,108.64C5.46,108.38 5.64,108 5.64,107.52C5.62,107.12 5.52,106.82 5.32,106.58C5.12,106.34 4.84,106.16 4.52,106C4.18,105.84 3.82,105.7 3.42,105.58C3.06,105.46 2.7,105.34 2.34,105.18C1.98,105.02 1.64,104.84 1.34,104.6C1.04,104.36 0.8,104.06 0.62,103.68C0.44,103.3 0.34,102.84 0.34,102.3C0.34,101.62 0.52,101.02 0.86,100.52C1.22,100.02 1.7,99.64 2.3,99.38C2.92,99.12 3.6,98.98 4.36,98.98C4.94,98.98 5.52,99.06 6.08,99.2C6.64,99.36 7.04,99.54 7.32,99.74C7.64,99.92 7.8,100.18 7.8,100.5C7.8,100.64 7.74,100.84 7.62,101.06C7.5,101.3 7.34,101.52 7.12,101.72C6.76,101.44 6.36,101.2 5.92,101.04C5.46,100.86 5.02,100.78 4.6,100.78C4.04,100.78 3.6,100.9 3.28,101.12C2.96,101.34 2.78,101.66 2.78,102.08C2.78,102.3 2.84,102.5 2.94,102.68C3.04,102.86 3.22,103.04 3.48,103.18C3.72,103.34 4.2,103.54 4.86,103.78C5.22,103.92 5.58,104.06 5.96,104.22C6.34,104.38 6.68,104.58 6.98,104.82C7.28,105.06 7.54,105.36 7.72,105.74C7.92,106.1 8,106.56 8,107.12C8,108.28 7.62,109.18 6.86,109.84C6.1,110.5 5.06,110.82 3.76,110.82C3.16,110.82 2.58,110.76 2.04,110.64C1.5,110.52 1.06,110.34 0.68,110.14C0.36,109.92 0.2,109.68 0.2,109.4C0.2,109.08 0.46,108.58 0.94,107.94" style="fill:rgb(4,5,6);fill-rule:nonzero;"/>
                <path d="M13.38,101.1L9.82,101.1C9.78,100.9 9.76,100.68 9.76,100.42C9.76,100.04 9.88,99.76 10.14,99.54C10.4,99.32 10.74,99.2 11.2,99.2L19.16,99.2C19.2,99.44 19.22,99.68 19.22,99.92C19.22,100.28 19.1,100.56 18.86,100.78C18.62,100.98 18.28,101.1 17.84,101.1L15.7,101.1L15.7,110.56L13.36,110.56L13.36,101.1L13.38,101.1Z" style="fill:rgb(4,5,6);fill-rule:nonzero;"/>
                <path d="M27.78,110.56L26.82,107.78L22.9,107.78L21.96,110.56L19.66,110.56L23.6,99.38C23.96,99.22 24.42,99.14 24.96,99.14C25.8,99.14 26.32,99.5 26.56,100.2L30.2,110.56L27.78,110.56ZM24.88,101.26L23.34,106.08L26.38,106.08L24.88,101.26Z" style="fill:rgb(4,5,6);fill-rule:nonzero;"/>
                <path d="M42,110.56L40.04,110.56L35.22,103.1L35.22,110.56L33,110.56L33,99.24C33.3,99.18 33.64,99.14 34.04,99.14C34.36,99.14 34.64,99.2 34.84,99.3C35.04,99.4 35.24,99.6 35.42,99.9L39.8,107.04L39.8,99.24C40.14,99.18 40.4,99.16 40.56,99.16C41.54,99.16 42.02,99.6 42.02,100.48L42,110.56Z" style="fill:rgb(4,5,6);fill-rule:nonzero;"/>
                <path d="M55.22,104.68C55.22,105.88 55,106.92 54.56,107.82C54.12,108.72 53.5,109.38 52.68,109.86C51.88,110.32 50.92,110.56 49.8,110.56L46.2,110.56L46.2,99.32C47.26,99.18 48.32,99.12 49.38,99.12C51.32,99.12 52.76,99.58 53.74,100.52C54.72,101.44 55.22,102.84 55.22,104.68M52.84,104.72C52.84,103.44 52.56,102.48 52.02,101.84C51.48,101.22 50.66,100.9 49.54,100.9C49.22,100.9 48.88,100.92 48.52,100.96L48.52,108.76L49.46,108.76C50.62,108.76 51.48,108.44 52.02,107.8C52.58,107.16 52.84,106.14 52.84,104.72" style="fill:rgb(4,5,6);fill-rule:nonzero;"/>
                <path d="M65.22,110.56L64.26,107.78L60.34,107.78L59.4,110.56L57.1,110.56L61.04,99.38C61.4,99.22 61.86,99.14 62.4,99.14C63.24,99.14 63.76,99.5 64,100.2L67.64,110.56L65.22,110.56ZM62.32,101.26L60.78,106.08L63.82,106.08L62.32,101.26Z" style="fill:rgb(4,5,6);fill-rule:nonzero;"/>
                <path d="M78.08,102.46C78.08,103.26 77.9,103.96 77.52,104.52C77.14,105.1 76.62,105.5 75.94,105.76L78.74,110.44C78.3,110.64 77.84,110.72 77.38,110.72C76.96,110.72 76.62,110.62 76.32,110.44C76.04,110.26 75.78,109.96 75.54,109.56L73.62,106.28L72.68,106.28L72.68,110.54L70.34,110.54L70.34,99.26C71.32,99.14 72.32,99.1 73.34,99.1C74.96,99.1 76.14,99.38 76.92,99.92C77.7,100.46 78.08,101.32 78.08,102.46M75.64,102.68C75.64,102.02 75.48,101.54 75.14,101.22C74.8,100.9 74.28,100.74 73.56,100.74C73.36,100.74 73.18,100.74 73.04,100.76C72.9,100.78 72.76,100.78 72.66,100.8L72.66,104.72L73.46,104.72C74.16,104.72 74.7,104.54 75.08,104.2C75.46,103.84 75.64,103.32 75.64,102.68" style="fill:rgb(4,5,6);fill-rule:nonzero;"/>
                <path d="M90.78,104.68C90.78,105.88 90.56,106.92 90.12,107.82C89.68,108.72 89.06,109.38 88.24,109.86C87.44,110.32 86.48,110.56 85.36,110.56L81.76,110.56L81.76,99.32C82.82,99.18 83.88,99.12 84.94,99.12C86.88,99.12 88.32,99.58 89.3,100.52C90.3,101.44 90.78,102.84 90.78,104.68M88.42,104.72C88.42,103.44 88.14,102.48 87.6,101.84C87.06,101.22 86.24,100.9 85.12,100.9C84.8,100.9 84.46,100.92 84.1,100.96L84.1,108.76L85.04,108.76C86.2,108.76 87.06,108.44 87.6,107.8C88.14,107.16 88.42,106.14 88.42,104.72" style="fill:rgb(4,5,6);fill-rule:nonzero;"/>
                <path d="M34.84,127.58L34.84,119L32.62,120.12C32.16,119.52 31.92,119.04 31.92,118.74C31.92,118.42 32.1,118.16 32.46,117.98L34.86,116.72C35.08,116.6 35.3,116.5 35.52,116.42C35.72,116.34 35.94,116.3 36.18,116.3C36.54,116.3 36.84,116.4 37.12,116.58L37.12,127.58L34.84,127.58Z" style="fill:rgb(4,5,6);fill-rule:nonzero;"/>
                <path d="M49.18,122.02C49.18,123.94 48.82,125.38 48.12,126.36C47.42,127.34 46.38,127.82 45,127.82C43.62,127.82 42.54,127.34 41.84,126.38C41.14,125.42 40.8,123.96 40.8,122.02C40.8,120.08 41.16,118.72 41.9,117.7C42.64,116.68 43.68,116.18 45.06,116.18C46.44,116.18 47.46,116.66 48.14,117.62C48.84,118.58 49.18,120.04 49.18,122.02M46.88,122.02C46.88,120.66 46.74,119.64 46.44,118.98C46.14,118.32 45.66,118 45.02,118C44.38,118 43.88,118.32 43.58,118.98C43.28,119.64 43.12,120.64 43.12,122.02C43.12,123.4 43.28,124.36 43.58,125.02C43.88,125.68 44.36,126 45.02,126C45.68,126 46.14,125.68 46.44,125.04C46.74,124.4 46.88,123.38 46.88,122.02" style="fill:rgb(4,5,6);fill-rule:nonzero;"/>
                <path d="M60.5,122.02C60.5,123.94 60.14,125.38 59.44,126.36C58.74,127.34 57.7,127.82 56.32,127.82C54.94,127.82 53.86,127.34 53.16,126.38C52.46,125.42 52.12,123.96 52.12,122.02C52.12,120.08 52.48,118.72 53.22,117.7C53.96,116.68 55,116.18 56.38,116.18C57.76,116.18 58.78,116.66 59.46,117.62C60.16,118.58 60.5,120.04 60.5,122.02M58.22,122.02C58.22,120.66 58.08,119.64 57.78,118.98C57.48,118.32 57,118 56.36,118C55.72,118 55.22,118.32 54.92,118.98C54.62,119.64 54.46,120.64 54.46,122.02C54.46,123.4 54.62,124.36 54.92,125.02C55.22,125.68 55.7,126 56.36,126C57.02,126 57.48,125.68 57.78,125.04C58.08,124.4 58.22,123.38 58.22,122.02" style="fill:rgb(4,5,6);fill-rule:nonzero;"/>
                <path d="M15.87,72.52C25,81.64 36.4,85.04 46.08,85.04C57.9,85.04 69.8,80.26 77.19,71.77C84.58,63.28 88.37,52.56 88.37,37.4L88.37,0L50.99,0C35.56,0 25.71,4.71 20.47,8.21C15.04,11.84 5.43,21.58 3.61,37.43C2.18,49.93 6.28,62.93 15.87,72.52" style="fill:rgb(0,172,140);fill-rule:nonzero;"/>
                <path d="M31.29,39.31C32.52,37.85 33.13,35.83 33.13,33.26C33.13,30.69 32.53,28.74 31.34,27.33C30.15,25.92 28.45,25.21 26.24,25.21C24.79,25.21 23.53,25.53 22.47,26.16C21.41,26.8 20.58,27.73 20,28.97C19.41,30.2 19.12,31.64 19.12,33.29C19.12,34.94 19.38,36.4 19.92,37.64C20.45,38.88 21.23,39.84 22.27,40.5C23.3,41.17 24.57,41.5 26.06,41.5C28.33,41.5 30.07,40.77 31.3,39.31M23.38,37.46C22.73,36.46 22.41,35.07 22.41,33.28C22.41,31.49 22.73,30.15 23.38,29.2C24.03,28.25 24.98,27.77 26.22,27.77C27.46,27.77 28.31,28.25 28.94,29.2C29.56,30.15 29.88,31.52 29.88,33.28C29.88,35.04 29.56,36.48 28.92,37.47C28.28,38.46 27.36,38.96 26.16,38.96C24.96,38.96 24.03,38.46 23.38,37.46" style="fill:white;fill-rule:nonzero;"/>
                <path d="M45.93,40.72C45.93,40.6 45.94,40.46 45.94,40.29C45.94,39.76 45.77,39.36 45.44,39.07C45.11,38.78 44.64,38.64 44.02,38.64L39.07,38.64L39.07,34.34L43.97,34.34L43.97,31.85L39.07,31.85L39.07,28.01L43.63,28.01C44.34,28.01 44.84,27.89 45.14,27.64C45.44,27.39 45.59,26.97 45.59,26.38C45.59,26.04 45.57,25.75 45.52,25.52L35.88,25.52L35.88,41.11L45.89,41.11C45.9,40.97 45.92,40.84 45.93,40.73" style="fill:white;fill-rule:nonzero;"/>
                <path d="M51.32,33.19C51.38,33.98 51.76,34.83 52.45,35.73L55.85,40.15C56.47,40.96 57.29,41.36 58.32,41.36C58.94,41.36 59.55,41.18 60.15,40.82L54.39,32.98L59.5,26.12C59.28,25.9 59.01,25.73 58.68,25.61C58.35,25.49 58,25.42 57.63,25.42C57.2,25.42 56.81,25.52 56.46,25.72C56.11,25.92 55.77,26.24 55.43,26.67L52.26,30.86C51.95,31.26 51.72,31.62 51.58,31.94C51.43,32.26 51.34,32.58 51.32,32.9L51.32,27.22C51.32,26.01 50.63,25.4 49.26,25.4C49.01,25.4 48.64,25.44 48.15,25.52L48.15,41.09L51.32,41.09L51.32,33.18L51.32,33.19Z" style="fill:white;fill-rule:nonzero;"/>
                <path d="M72.74,27.33C71.54,25.92 69.84,25.21 67.64,25.21C66.19,25.21 64.93,25.53 63.87,26.16C62.81,26.8 61.98,27.73 61.39,28.96C60.8,30.19 60.51,31.63 60.51,33.28C60.51,34.93 60.78,36.39 61.31,37.63C61.84,38.87 62.62,39.83 63.66,40.49C64.69,41.16 65.96,41.49 67.45,41.49C69.72,41.49 71.46,40.76 72.69,39.3C73.92,37.84 74.53,35.82 74.53,33.25C74.53,30.68 73.93,28.73 72.74,27.32M70.31,37.47C69.67,38.46 68.75,38.96 67.55,38.96C66.35,38.96 65.42,38.46 64.77,37.46C64.12,36.46 63.8,35.07 63.8,33.28C63.8,31.49 64.12,30.15 64.77,29.2C65.42,28.25 66.37,27.77 67.61,27.77C68.85,27.77 69.7,28.25 70.33,29.2C70.95,30.15 71.27,31.52 71.27,33.28C71.27,35.04 70.95,36.48 70.31,37.47" style="fill:white;fill-rule:nonzero;"/>
                <path d="M68.99,46.67C66.83,46.67 65.08,48.44 65.08,50.61C65.08,52.78 66.83,54.55 68.99,54.55C71.15,54.55 72.9,52.78 72.9,50.61C72.9,48.44 71.14,46.67 68.99,46.67M68.99,53.63C67.33,53.63 65.99,52.27 65.99,50.61C65.99,48.95 67.34,47.58 68.99,47.58C70.64,47.58 72,48.94 72,50.61C72,52.28 70.65,53.63 68.99,53.63" style="fill:white;fill-rule:nonzero;"/>
                <path d="M69.96,50.69C70.05,50.63 70.13,50.55 70.2,50.46C70.27,50.36 70.33,50.25 70.37,50.13C70.41,50.01 70.42,49.87 70.42,49.7C70.42,49.32 70.29,49.03 70.03,48.84C69.78,48.65 69.37,48.56 68.81,48.56C68.66,48.56 68.51,48.56 68.32,48.57C68.14,48.58 67.97,48.6 67.79,48.61L67.79,52.46L68.59,52.46L68.59,51L68.91,51L69.56,52.12C69.64,52.26 69.73,52.36 69.82,52.42C69.91,52.48 70.03,52.51 70.17,52.51C70.24,52.51 70.32,52.5 70.41,52.48C70.49,52.46 70.56,52.44 70.64,52.41L69.69,50.81C69.79,50.78 69.88,50.73 69.96,50.67M69.4,50.29C69.27,50.4 69.08,50.46 68.85,50.46L68.58,50.46L68.58,49.12C68.58,49.12 68.65,49.12 68.71,49.11L68.89,49.11C69.11,49.11 69.28,49.16 69.41,49.26C69.53,49.36 69.6,49.53 69.6,49.77C69.6,50.01 69.53,50.18 69.4,50.3" style="fill:white;fill-rule:nonzero;"/>
                <path d="M26.99,46.77C26.39,46.77 25.91,46.92 25.56,47.22C25.21,47.52 25.03,47.93 25.03,48.44C25.03,48.78 25.05,49.09 25.1,49.37L29.93,49.37L29.93,62.36L33.12,62.36L33.12,49.37L36.03,49.37C36.63,49.37 37.1,49.23 37.43,48.94C37.76,48.65 37.93,48.26 37.93,47.76C37.93,47.42 37.91,47.09 37.86,46.76L26.99,46.76L26.99,46.77Z" style="fill:white;fill-rule:nonzero;"/>
                <path d="M47.92,59.9L42.97,59.9L42.97,55.59L47.87,55.59L47.87,53.1L42.97,53.1L42.97,49.26L47.53,49.26C48.24,49.26 48.74,49.14 49.04,48.89C49.34,48.64 49.49,48.22 49.49,47.63C49.49,47.29 49.47,47 49.42,46.77L39.78,46.77L39.78,62.36L49.79,62.36C49.8,62.22 49.82,62.09 49.82,61.98C49.82,61.86 49.83,61.72 49.83,61.55C49.83,61.02 49.66,60.61 49.33,60.33C49,60.04 48.52,59.9 47.91,59.9" style="fill:white;fill-rule:nonzero;"/>
                <path d="M63.98,47.14C63.39,46.83 62.83,46.68 62.29,46.68C61.8,46.68 61.39,46.78 61.08,46.98C60.76,47.18 60.45,47.55 60.14,48.07L57.85,52.03L55.61,47.82C55.22,47.06 54.61,46.68 53.76,46.68C53.19,46.68 52.52,46.85 51.75,47.19L55.82,54.59L51.24,62.36L54.71,62.36L57.67,57.22L60.05,61.2C60.36,61.73 60.69,62.1 61.03,62.31C61.38,62.52 61.82,62.63 62.36,62.63C62.93,62.63 63.54,62.51 64.19,62.28L59.68,54.48L63.98,47.15L63.98,47.14Z" style="fill:white;fill-rule:nonzero;"/>
            </g>
        </g>
    </g>
</svg>
